<svg width="600" height="720" viewBox="0 0 600 720" xmlns="http://www.w3.org/2000/svg">
  <rect width="600" height="720" fill="#f3e3dd"/>
  <ellipse cx="300" cy="640" rx="160" ry="24" fill="#e8ded4" opacity="0.6"/>
  <!-- dropper cap -->
  <rect x="270" y="60" width="60" height="90" rx="10" fill="#a86b56"/>
  <rect x="286" y="40" width="28" height="30" rx="6" fill="#8a5645"/>
  <rect x="292" y="20" width="16" height="140" rx="6" fill="#c98a72"/>
  <!-- bottle body -->
  <path d="M220 150 h160 v40 c30 20 40 60 40 110 v220 c0 40 -30 70 -70 70 h-100 c-40 0 -70 -30 -70 -70 v-220 c0 -50 10 -90 40 -110 z" fill="#fdfaf6" stroke="#c98a72" stroke-width="3"/>
  <!-- label -->
  <rect x="230" y="330" width="140" height="150" rx="8" fill="#ffffff" stroke="#e8ded4" stroke-width="2"/>
  <text x="300" y="380" font-family="Georgia, serif" font-size="26" fill="#2b2420" text-anchor="middle" font-weight="600">NAILLIA</text>
  <text x="300" y="405" font-family="Arial, sans-serif" font-size="11" letter-spacing="2" fill="#a86b56" text-anchor="middle">ROSEHIP OIL</text>
  <line x1="255" y1="418" x2="345" y2="418" stroke="#e8ded4" stroke-width="1.5"/>
  <text x="300" y="440" font-family="Arial, sans-serif" font-size="10" fill="#6b6155" text-anchor="middle">NAIL &amp; CUTICLE</text>
  <text x="300" y="456" font-family="Arial, sans-serif" font-size="10" fill="#6b6155" text-anchor="middle">TREATMENT</text>
</svg>
